<svg width="23" height="23" fill="none" xmlns="http://www.w3.org/2000/svg"><g clip-path="url(#prefix__a)"><path d="M19.167 10.54h1.916c0-4.915-3.711-8.623-8.634-8.623v1.916c3.893 0 6.718 2.82 6.718 6.708z" fill="#BDBDBD"/><g filter="url(#prefix__b)"><path d="M12.458 7.667c2.016 0 2.875.86 2.875 2.875h1.917c0-3.091-1.701-4.792-4.792-4.792v1.917zm3.28 5.216a.96.96 0 0 0-1.333.041l-2.294 2.358c-.552-.105-1.661-.45-2.804-1.59-1.142-1.144-1.488-2.256-1.59-2.805l2.356-2.294a.959.959 0 0 0 .041-1.333l-3.54-3.893a.958.958 0 0 0-1.334-.084L3.16 5.067a.958.958 0 0 0-.277.622c-.015.24-.289 5.914 4.112 10.317 3.839 3.838 8.648 4.119 9.972 4.119.194 0 .313-.006.344-.008a.95.95 0 0 0 .621-.279l1.783-2.08a.958.958 0 0 0-.083-1.333l-3.894-3.542z" fill="#BDBDBD"/></g></g><defs><clipPath id="prefix__a"><path fill="#fff" d="M0 0h23v23H0z"/></clipPath><filter id="prefix__b" x="-1.125" y="3.052" width="25.071" height="25.072" filterUnits="userSpaceOnUse" color-interpolation-filters="sRGB"><feFlood flood-opacity="0" result="BackgroundImageFix"/><feColorMatrix in="SourceAlpha" values="0 0 0 0 0 0 0 0 0 0 0 0 0 0 0 0 0 0 127 0"/><feOffset dy="4"/><feGaussianBlur stdDeviation="2"/><feColorMatrix values="0 0 0 0 0 0 0 0 0 0 0 0 0 0 0 0 0 0 0.25 0"/><feBlend in2="BackgroundImageFix" result="effect1_dropShadow"/><feBlend in="SourceGraphic" in2="effect1_dropShadow" result="shape"/></filter></defs></svg>